<svg height="512" viewBox="0 0 60 60" width="512" xmlns="http://www.w3.org/2000/svg"><g id="Page-1" fill="none" fill-rule="evenodd"><g id="039---Flaming-Heart" fill-rule="nonzero"><path id="Shape" d="m52.93 40.61c-5.71-2.08-11.19-3.61-22.93-3.61-11.99 0-17.44 1.6-22.94 3.61-.20808572-2.2972276.22824048-4.6069861 1.26-6.67 1.9082966-4.1562154 6.0274547-6.8530982 10.6-6.94 9.07 0 11.08 6 11.08 6s2.01-6 11.08-6c4.1664576.0572397 7.9907358 2.3175594 10.05 5.94 1.4057457 2.2979961 2.0366981 4.9865543 1.8 7.67z" fill="#f44335"/><path id="Shape" d="m51.13 32.94c-2.0592642-3.6224406-5.8835424-5.8827603-10.05-5.94-.6 0-1.172.03-1.715.08 3.6760816.4784145 6.9179577 2.6458296 8.765 5.86 1.2188618 2.0072922 1.8610329 4.3116344 1.856 6.66 1 .318 1.967.656 2.944 1.012.237134-2.684111-.3938345-5.3734389-1.8-7.672z" fill="#c81e1e"/><path id="Shape" d="m51.14 32.94h-.01c-2.0592642-3.6224406-5.8835424-5.8827603-10.05-5.94-9.07 0-11.08 6-11.08 6s-2.01-6-11.08-6c-4.5725453.0869018-8.6917034 2.7837846-10.6 6.94h-.01c-2.31-1.94-2.31-5.08-2.31-8.94 0-6-4-6-4-6s0-2 3-2c4.12 0 5 4 5 6s4 2 4-1-2-7 2-10c0 0-1 4 1 6 1.4919967 1.2045824 2.249665 3.0987529 2 5 0 0 4-1 4-4 0-2-2-2-2-6s4-5 5-8c.5984067 1.25270805.9384962 2.61306621 1 4 0 2-2 2 0 7 1.84 4.59.3 6.66.04 6.97 2.5778284-1.5029385 4.384695-4.0420233 4.96-6.97 1-5-5-8 3-15 0 0-2 3 2 7 3.19 3.19 1.89 9.31 1 12 2.89-2.39 5.77-4.59 5-10-1-7 4-7 4-7s-2 2 1 6 3 11-3 12c0 0 3 3 6 1 1.7382099-1.0947728 2.8520051-2.9510982 3-5 0 0 0 5 1 7 .7050897 1.6946941.6923834 3.6029534-.0352113 5.2881079s-2.1078026 3.0029712-3.8247887 3.6518921z" fill="#ff9801"/><g fill="#f57c00"><path id="Shape" d="m34 8c3.19 3.19 1.89 9.31 1 12 1.4852055-1.0864549 2.7939279-2.3955146 3.88-3.881.364-2.789.177-6.062-1.88-8.119-4-4-2-7-2-7-1.2570427 1.04165874-2.3426133 2.27435678-3.217 3.653.4679586 1.27324904 1.2271707 2.41942986 2.217 3.347z"/><path id="Shape" d="m45 9c3 4 3 11-3 12 0 0 2.513 2.5 5.239 1.394-.8296901-.3150344-1.5901543-.788499-2.239-1.394 6-1 6-8 3-12s-1-6-1-6c-1.5806041.08472777-2.978077 1.05417381-3.611 2.505.2256463 1.28473732.7807267 2.48896197 1.611 3.495z"/><path id="Shape" d="m14 18c1.4919967 1.2045824 2.249665 3.0987529 2 5 1.089948-.3018017 2.0947566-.8529915 2.935-1.61-.1997417-1.3317439-.8898678-2.540802-1.935-3.39-2-2-1-6-1-6-1.7370453 1.2112725-2.6876417 3.263766-2.488 5.372.1387481.22687.3024319.4375123.488.628z"/><path id="Shape" d="m24 9c0 2-2 2 0 7 1.84 4.59.3 6.66.04 6.97 1.5846012-.9182652 2.894318-2.244211 3.793-3.84-.1357582-1.0760243-.4159478-2.1288376-.833-3.13-2-5 0-5 0-7-.0615038-1.38693379-.4015933-2.74729195-1-4-.4552393 1.11458792-1.1761869 2.10091297-2.1 2.873.0631635.37242085.0966023.74927606.1 1.127z"/><path id="Shape" d="m55 24c-1-2-1-7-1-7-.1381101 1.8885919-1.1018046 3.6202418-2.634 4.733.1054085.7813644.3187783 1.544313.634 2.267 1.1029011 2.6622776.3971385 5.7310204-1.758 7.644.3217206.4151928.6182528.8493053.888 1.3h.01c1.717991-.6488549 3.0989812-1.9673337 3.8266649-3.6534483.7276836-1.6861146.7397138-3.5954012.0333351-5.2905517z"/><path id="Shape" d="m7 23c0 1.459 2.125 1.847 3.276.788-.1803976-.2228237-.27793918-.5013121-.276-.788 0-2-.88-6-5-6-.5023038-.0093949-1.00270878.0642636-1.481.218 2.821.852 3.481 4.058 3.481 5.782z"/></g><path id="Shape" d="m13 49.06v5.94c-.0020179.5513864-.2339823 1.0769307-.64 1.45l-6.36-5.45c2.06731797-1.0124901 4.2548029-1.7584527 6.51-2.22.12.08.24.15.37.22z" fill="#dfc49c"/><path id="Shape" d="m12.36 56.45c-.3614222.3580087-.8513167.5561278-1.36.55h-10l2-4-2-4h5v2z" fill="#ffe0b2"/><path id="Shape" d="m47.5 48.78c-.12.08-.25.15-.38.22l-.12.06c-10.97 5.93-12.98 4.96-17 9.94-4.02-4.98-6.03-4.01-17-9.94l-.12-.06c-.13-.07-.25-.14-.37-.22.16-.04.32-.08.49-.11 5.5872195-1.1852611 11.2889419-1.7453715 17-1.67 5.8824687-.0837682 11.7548689.5135388 17.5 1.78z" fill="#f44335"/><path id="Shape" d="m30 47c-.528 0-1.023.012-1.532.02 5.3918982.0056132 10.7673.5957272 16.032 1.76-.12.08-.25.15-.38.22l-.12.06c-9.533 5.154-12.3 5.1-15.5 8.265.5309713.5298041 1.0317603 1.0890184 1.5 1.675 4.02-4.98 6.03-4.01 17-9.94l.12-.06c.13-.07.26-.14.38-.22-5.7451311-1.2664612-11.6175313-1.8637682-17.5-1.78z" fill="#c81e1e"/><path id="Shape" d="m54 41.35v9.65c-2.0631747-1.0140546-4.2475583-1.7601056-6.5-2.22-5.7451311-1.2664612-11.6175313-1.8637682-17.5-1.78-5.7110581-.0753715-11.4127805.4847389-17 1.67-.17.03-.33.07-.49.11-2.2551971.4615473-4.44268203 1.2075099-6.51 2.22v-9.65c.00008957-.210515.13202628-.3984249.33-.47.24-.09.49-.18.73-.27 5.5-2.01 10.95-3.61 22.94-3.61 11.74 0 17.22 1.53 22.93 3.61.25.09.49.18.74.27.1979737.0715751.3299104.259485.33.47z" fill="#ffe0b2"/><path id="Shape" d="m54 51-6.36 5.45c-.4060177-.3730693-.6379821-.8986136-.64-1.45v-5.94l.12-.06c.13-.07.26-.14.38-.22 2.2524417.4598944 4.4368253 1.2059454 6.5 2.22z" fill="#dfc49c"/><path id="Shape" d="m57 53 2 4h-10c-.5086833.0061278-.9985778-.1919913-1.36-.55l6.36-5.45v-2h5z" fill="#ffe0b2"/><path id="Shape" d="m13 36c-.3212672-.0002439-.6228543-.1548257-.8106349-.4155001s-.2388857-.5956946-.1373651-.9004999c.7911613-2.1480539 2.4841169-3.841375 4.632-4.633.5246705-.1756265 1.0923734.1073295 1.268.632.1756265.5246705-.1073295 1.0923734-.632 1.268-1.5495392.5960993-2.7745217 1.819992-3.372 3.369-.1373377.4066133-.5188194.68025-.948.68z" fill="#f5f5f5"/><path id="Shape" d="m59.851 48.474c-.1823371-.2948193-.5043515-.4741786-.851-.474h-4v-6.651c-.0023375-.6276165-.3924091-1.188444-.98-1.409l-.059-.021c.0655196-2.2647076-.437463-4.5097359-1.463-6.53 1.6276179-.8792022 2.8811229-2.3188853 3.528-4.052.7076271-1.8721095.6606597-3.9458474-.131-5.784-.733-1.465-.895-5.227-.895-6.553-.0019233-.5191427-.4007872-.9504782-.9181937-.9929441-.5174064-.0424659-.9812622.3180624-1.0678063.8299441v.017.033.024.028.006.055c-.1447255 1.7151696-1.0922088 3.2608097-2.555 4.168-.9554388.6238853-2.1722416.6868826-3.187.165 1.4427772-.6890835 2.5695767-1.900965 3.152-3.39 1.0664109-3.2541047.4587584-6.8248118-1.624-9.543-2.385-3.18-1.129-4.65-1.093-4.693.2859079-.28599425.3714219-.71603662.216678-1.08965456s-.5192821-.61725909-.923678-.61734544c-1.4166805.06064488-2.7483316.69273723-3.691 1.752-1.26 1.453-1.7 3.6-1.3 6.389.5327662 2.5813053-.3353693 5.2522282-2.284 7.027.514-2.977.628-7.229-2.019-9.875-3.318-3.319-1.928-5.653-1.875-5.738.2751486-.41688912.2004738-.97287506-.1749247-1.30238874-.3753985-.32951367-.9363734-.33148221-1.3140753-.00461126-5.821 5.093-4.776 8.492-3.854 11.491.5225534 1.2856724.7057519 2.6841101.532 4.061-.3160536 1.6100877-1.0467946 3.1098302-2.12 4.351-.0219862-1.5565622-.3505829-3.0935248-.967-4.523-1.207-3.016-.814-3.865-.433-4.687.318202-.5982063.4895833-1.26350844.5-1.941-.0605166-1.54170253-.4348099-3.05486818-1.1-4.447-.1809137-.36168763-.5618664-.57880459-.9652589-.55013154-.4033926.02867304-.7498052.29749095-.8777411.68113154-.4648116 1.03849486-1.1698643 1.95160151-2.057 2.664-1.4 1.352-3 2.893-3 5.652-.0972981 1.6881193.4127941 3.3553191 1.438 4.7.33553.3530018.5347119.8137428.562 1.3-.1416565 1.1692057-.9288401 2.1593713-2.036 2.561-.108-1.356-.538-2.549-2.257-4.268-1.3-1.3-.974-4.089-.736-5.052.1021826-.4107039-.0652456-.8412591-.4180447-1.0750363-.3527992-.2337771-.8145611-.2201455-1.1529553.0340363-3.515 2.636-3.021 5.964-2.625 8.638.1256131.7144978.2007987 1.4369483.225 2.162.034101.3626438-.0885276.7225578-.3369487.9889416-.2484212.2663839-.5989126.4138002-.9630513.4050584-.007 0-.7 0-.7-.394 0-2.6-1.264-7-6-7-3.164 0-4 1.962-4 3 .00629311.5446247.44250428.9865813.987 1 .313.008 3.013.219 3.013 5 0 3.71 0 6.949 2.121 9.186-.78060235 1.8090241-1.15342371 3.7677018-1.092 5.737l-.05.018c-.5870685.2199122-.97684951.780098-.979 1.407v6.652h-4c-.34661803-.0001616-.6685998.1791823-.85093159.4739691-.1823318.2947867-.19900673.6629693-.04406841.9730309l1.777 3.553-1.777 3.553c-.15493832.3100616-.13826339.6782442.04406841.9730309.18233179.2947868.50431356.4741307.85093159.4739691h10c.7606261.0082658 1.4936333-.2847213 2.039-.815.6097732-.5633415.9578872-1.354839.961-2.185v-4.275c3.3 1.728 5.751 2.81 7.6 3.628 3.7 1.636 5.23 2.313 7.621 5.275.1898479.2350949.4758215.3717357.778.3717357s.5881521-.1366408.778-.3717357c2.391-2.962 3.922-3.639 7.621-5.275 1.854-.819 4.307-1.905 7.6-3.628v4.275c.0003556.8173681.3383422 1.5982836.934 2.158.5493247.5454284 1.2939158.8485937 2.068.842h10c.3475069.0019021.6710847-.1767435.8546237-.4718336.1835391-.29509.2007194-.6643076.0453763-.9751664l-1.782-3.553 1.782-3.553c.1534413-.3108982.1348992-.6790902-.049-.973zm-52.007 2.789c1.35599866-.5275199 2.7441247-.9684069 4.156-1.32v4.882zm4.98-3.577c-.185.032-.36.075-.546.121-1.79773.412725-3.56200344.9595896-5.278 1.636v-7.743c5.888-2.175 11.114-3.7 23-3.7s17.1 1.525 23 3.7v7.745c-1.713235-.6759673-3.4748664-1.2221733-5.27-1.634-5.8210619-1.2811742-11.7701249-1.8888309-17.73-1.811-5.7699307-.0717394-11.5301492.4936849-17.176 1.686zm35.176 7.139v-4.885c1.4129186.3510336 2.8017875.7926124 4.158 1.322zm-41-29.825c0-4.459-2.056-6.079-3.531-6.666.46877959-.2530658.99941407-.368828 1.531-.334 3.888 0 4 4.488 4 5 .01951115.683144.32063053 1.3278148.83199082 1.7812209.51136028.4534061 1.18744198.675187 1.86800918.6127791.8970293.0176372 1.7612126-.3374787 2.3866603-.9807422s.9561579-1.5170774.9133397-2.4132578c-.0224158-.8235437-.1046322-1.6443708-.246-2.456-.3492657-1.4539459-.3358729-2.971445.039-4.419.0669043 1.3324072.5975133 2.5995016 1.5 3.582 1.707 1.707 1.707 2.359 1.707 4.293.000085.3077899.1419035.5983932.3844791.7878443.2425755.1894511.5588797.2566409.8575209.1821557.195-.049 4.758-1.232 4.758-4.97-.0193702-.9017824-.347258-1.7696793-.929-2.459-.7829031-1.007124-1.1645058-2.2688001-1.071-3.541 0-1.909 1.107-2.976 2.39-4.211.4889891-.45461676.9523684-.93602381 1.388-1.442.1392935.54024597.2138172 1.0951457.222 1.653-.0163628.38684477-.125423.76409716-.318 1.1-.622 1.343-1.023 2.741.39 6.272 1.514 3.777.524 5.515.251 5.892-.0094839.0081497-.0184983.0168303-.027.026-.1876611.1864108-.2931938.4399897-.2931938.7045s.1055327.5180892.2931938.7045c.3176432.3182271.8086178.385327 1.2.164 2.8522588-1.6387598 4.8530629-4.4345588 5.484-7.663.2550084-1.7037172.0549101-3.4445723-.58-5.046-.7-2.271-1.319-4.288 1.158-7.281.360374 1.86751688 1.3207113 3.56627823 2.735 4.838 2.435 2.434 1.93 7.436.758 10.979-.1404443.4233883.0165182.8885986.3847575 1.1403565.3682394.2517578.8586962.2291751 1.2022425-.0553565l.245-.2c2.781-2.3 5.933-4.9 5.107-10.709-.31-2.171-.037-3.778.812-4.775.1640959-.19324161.3522978-.36463978.56-.51-.0324829 1.84330211.6227794 3.63261743 1.838 5.019 1.673656 2.1565336 2.1799121 4.9981486 1.354 7.6-.6188238 1.5570163-2.051441 2.6413048-3.718 2.814-.3693295.0616236-.6732884.3244106-.7876441.6809559-.1143556.3565452-.0199453.7471022.2446441 1.0120441 1.238 1.239 4.349 3.065 7.262 1.125.647039-.4275809 1.2293164-.9458717 1.729-1.539.1138479 1.0865748.3906155 2.149821.821 3.154.5500863 1.343028.5661841 2.8454941.045 4.2-.4941369 1.2964275-1.4495704 2.3647467-2.683 3-.3363699-.4922346-.7037818-.9625219-1.1-1.408-2.345114-2.67864-5.7268889-4.2222325-9.287-4.239-6.545 0-9.7 2.932-11.08 4.914-1.383-1.982-4.535-4.914-11.08-4.914-3.5645988.0152304-6.9512289 1.5596065-9.3 4.241-.55160052.6185424-1.04721176 1.2848233-1.481 1.991-1.122-1.701-1.139-4.195-1.139-7.232zm4.107 6.581c1.9709373-2.2579967 4.8158714-3.56194 7.813-3.581 8.18 0 10.058 5.106 10.132 5.317.1366268.4045289.515028.6776847.942.68h.006c.4262378-.0000104.8056202-.2701949.945-.673.077-.218 1.955-5.324 10.135-5.324 2.9919522.0198429 5.8318288 1.321453 7.8 3.575 1.9022494 2.0972565 3.0004765 4.8003123 3.1 7.63-5.341-1.861-10.98-3.205-21.98-3.205-11.011 0-16.654 1.346-21.99 3.208.09939734-2.8282605 1.19649618-5.5300922 3.097-7.627zm-7.207 20.972-1.282-2.553h2.382v1c.00219385.2909119.13197661.5661976.355.753l-.005.006 4.95 4.241h-7.682l1.282-2.553c.14062139-.2814108.14062139-.6125892 0-.894zm33.7-.029c-3.4 1.505-5.279 2.335-7.59 4.928-2.311-2.593-4.187-3.423-7.59-4.928-1.821-.8-4.023-1.782-7-3.323 4.8137875-.8395872 9.6937119-1.2415617 14.58-1.201 4.8908976-.0408449 9.7754653.3607915 14.594 1.2-2.973 1.538-5.179 2.517-7.004 3.324zm18.515.923 1.267 2.553h-7.682l4.949-4.241v-.005c.2209243-.1884506.349023-.4636257.351-.754v-1h2.382l-1.277 2.553c-.1406214.2814108-.1406214.6125892 0 .894z" fill="#000"/></g></g></svg>